<?xml version="1.0" encoding="UTF-8"?>
<svg id="Layer_2" data-name="Layer 2" xmlns="http://www.w3.org/2000/svg" viewBox="0 0 508 507.9">
  <g id="Layer_1-2" data-name="Layer 1">
    <g>
      <path d="M493.9,0H14.1C6.3,0,0,6.3,0,14.1v349.5c0,7.8,6.3,14.1,14.1,14.1h479.8c7.8,0,14.1-6.3,14.1-14.1V14.1c0-7.8-6.3-14.1-14.1-14.1ZM479.8,349.5H28.2V28.2h451.6v321.3h0Z"/>
      <path d="M221.1,248.8c4.3,2.1,9.5,2.3,14.3-.4l75.7-47.5c4.1-2.6,6.6-7.1,6.6-11.9s-2.5-9.4-6.6-11.9l-75.7-47.5c-4.3-2.7-9.8-2.9-14.3-.4s-7.3,7.2-7.3,12.4v95.1c0,4.9,2.7,9.8,7.3,12.1ZM242.1,166.9l35,22-35,22v-44Z"/>
      <path d="M254,305.8c64.5,0,116.9-52.5,116.9-116.9s-52.4-117-116.9-117-116.9,52.5-116.9,116.9,52.4,117,116.9,117ZM254,100.2c48.9,0,88.7,39.8,88.7,88.7s-39.8,88.7-88.7,88.7-88.7-39.8-88.7-88.7,39.8-88.7,88.7-88.7Z"/>
      <path d="M466.3,434H202v-31.6c0-7.8-6.3-14.1-14.1-14.1s-14.1,6.3-14.1,14.1v31.6H41.7c-7.8,0-14.1,6.3-14.1,14.1s6.3,14.1,14.1,14.1h132.1v31.6c0,7.8,6.3,14.1,14.1,14.1s14.1-6.3,14.1-14.1v-31.6h264.3c7.8,0,14.1-6.3,14.1-14.1s-6.3-14.1-14.1-14.1Z"/>
    </g>
  </g>
</svg>
