<svg width="800px" height="800px" viewBox="0 0 24 24" fill="none" xmlns="http://www.w3.org/2000/svg">
<path opacity="0.5" d="M12 21C11.5858 21 11.25 20.6642 11.25 20.25L11.25 6.36396L7.53033 10.0836C7.23744 10.3765 6.76256 10.3765 6.46967 10.0836C6.17678 9.79073 6.17678 9.31586 6.46967 9.02296L11.4697 4.02296C11.6103 3.88231 11.8011 3.80332 12 3.80332C12.1989 3.80332 12.3897 3.88231 12.5303 4.02296L17.5303 9.02296C17.8232 9.31586 17.8232 9.79073 17.5303 10.0836C17.2374 10.3765 16.7626 10.3765 16.4697 10.0836L12.75 6.36396L12.75 20.25C12.75 20.6642 12.4142 21 12 21Z" fill="#2ee5f0"/>
<path d="M12 3C12.4142 3 12.75 3.33579 12.75 3.75L12.75 17.636L16.4697 13.9164C16.7626 13.6235 17.2374 13.6235 17.5303 13.9164C17.8232 14.2093 17.8232 14.6842 17.5303 14.9771L12.5303 19.9771C12.3897 20.1177 12.1989 20.1967 12 20.1967C11.8011 20.1967 11.6103 20.1177 11.4697 19.9771L6.46967 14.9771C6.17678 14.6842 6.17678 14.2093 6.46967 13.9164C6.76256 13.6235 7.23744 13.6235 7.53033 13.9164L11.25 17.636L11.25 3.75C11.25 3.33579 11.5858 3 12 3Z" fill="#2ee5f0"/>
</svg>
