<?xml version="1.0" encoding="UTF-8"?>
<svg id="Layer_2" data-name="Layer 2" xmlns="http://www.w3.org/2000/svg" viewBox="0 0 78 89.61">
  <g id="Layer_1-2" data-name="Layer 1">
    <path d="M41.22,89.61h-4.66c-1.1,0-2-.9-2-2v-3.13c0-1.1.9-2,2-2h4.66c1.1,0,2,.9,2,2v3.13c0,1.1-.9,2-2,2ZM52.69,81.95h-4.66c-1.1,0-2-.9-2-2v-2.78c0-1.1.9-2,2-2h4.66c1.1,0,2,.9,2,2v2.78c0,1.1-.9,2-2,2ZM41.22,81.95h-4.66c-1.1,0-2-.9-2-2v-2.78c0-1.1.9-2,2-2h4.66c1.1,0,2,.9,2,2v2.78c0,1.1-.9,2-2,2ZM29.97,81.95h-4.66c-1.1,0-2-.9-2-2v-2.78c0-1.1.9-2,2-2h4.66c1.1,0,2,.9,2,2v2.78c0,1.1-.9,2-2,2ZM64.35,74.64h-4.66c-1.1,0-2-.9-2-2v-3.13c0-1.1.9-2,2-2h4.66c1.1,0,2,.9,2,2v3.13c0,1.1-.9,2-2,2ZM52.69,74.64h-4.66c-1.1,0-2-.9-2-2v-3.13c0-1.1.9-2,2-2h4.66c1.1,0,2,.9,2,2v3.13c0,1.1-.9,2-2,2ZM41.22,74.64h-4.66c-1.1,0-2-.9-2-2v-3.13c0-1.1.9-2,2-2h4.66c1.1,0,2,.9,2,2v3.13c0,1.1-.9,2-2,2ZM29.97,74.64h-4.66c-1.1,0-2-.9-2-2v-3.13c0-1.1.9-2,2-2h4.66c1.1,0,2,.9,2,2v3.13c0,1.1-.9,2-2,2ZM18.32,74.64h-4.66c-1.1,0-2-.9-2-2v-3.13c0-1.1.9-2,2-2h4.66c1.1,0,2,.9,2,2v3.13c0,1.1-.9,2-2,2ZM76,66.99h-4.66c-1.1,0-2-.9-2-2v-2.78c0-1.1.9-2,2-2h4.66c1.1,0,2,.9,2,2v2.78c0,1.11-.9,2-2,2ZM64.35,66.99h-4.66c-1.1,0-2-.9-2-2v-2.78c0-1.1.9-2,2-2h4.66c1.1,0,2,.9,2,2v2.78c0,1.11-.9,2-2,2ZM52.69,66.99h-4.66c-1.1,0-2-.9-2-2v-2.78c0-1.1.9-2,2-2h4.66c1.1,0,2,.9,2,2v2.78c0,1.11-.9,2-2,2ZM41.22,66.99h-4.66c-1.1,0-2-.9-2-2v-2.78c0-1.1.9-2,2-2h4.66c1.1,0,2,.9,2,2v2.78c0,1.11-.9,2-2,2ZM29.97,66.99h-4.66c-1.1,0-2-.9-2-2v-2.78c0-1.1.9-2,2-2h4.66c1.1,0,2,.9,2,2v2.78c0,1.11-.9,2-2,2ZM18.32,66.99h-4.66c-1.1,0-2-.9-2-2v-2.78c0-1.1.9-2,2-2h4.66c1.1,0,2,.9,2,2v2.78c0,1.11-.9,2-2,2ZM7.24,66.99H2.58c-1.1,0-2-.9-2-2v-2.78c0-1.1.9-2,2-2h4.66c1.1,0,2,.9,2,2v2.78c0,1.11-.89,2-2,2ZM52.69,59.68h-4.66c-1.1,0-2-.9-2-2v-2.78c0-1.1.9-2,2-2h4.66c1.1,0,2,.9,2,2v2.78c0,1.1-.9,2-2,2ZM41.19,59.68h-4.66c-1.1,0-2-.9-2-2v-2.78c0-1.1.9-2,2-2h4.66c1.1,0,2,.9,2,2v2.78c0,1.1-.9,2-2,2ZM29.97,59.68h-4.66c-1.1,0-2-.9-2-2v-2.78c0-1.1.9-2,2-2h4.66c1.1,0,2,.9,2,2v2.78c0,1.1-.9,2-2,2ZM52.69,52.37h-4.66c-1.1,0-2-.9-2-2v-3.13c0-1.1.9-2,2-2h4.66c1.1,0,2,.9,2,2v3.13c0,1.1-.9,2-2,2ZM41.19,52.37h-4.66c-1.1,0-2-.9-2-2v-3.13c0-1.1.9-2,2-2h4.66c1.1,0,2,.9,2,2v3.13c0,1.1-.9,2-2,2ZM29.97,52.37h-4.66c-1.1,0-2-.9-2-2v-3.13c0-1.1.9-2,2-2h4.66c1.1,0,2,.9,2,2v3.13c0,1.1-.9,2-2,2ZM52.69,44.72h-4.66c-1.1,0-2-.9-2-2v-2.78c0-1.1.9-2,2-2h4.66c1.1,0,2,.9,2,2v2.78c0,1.1-.9,2-2,2ZM41.19,44.72h-4.66c-1.1,0-2-.9-2-2v-2.78c0-1.1.9-2,2-2h4.66c1.1,0,2,.9,2,2v2.78c0,1.1-.9,2-2,2ZM29.97,44.72h-4.66c-1.1,0-2-.9-2-2v-2.78c0-1.1.9-2,2-2h4.66c1.1,0,2,.9,2,2v2.78c0,1.1-.9,2-2,2ZM52.69,37.06h-4.66c-1.1,0-2-.9-2-2v-2.78c0-1.1.9-2,2-2h4.66c1.1,0,2,.9,2,2v2.78c0,1.1-.9,2-2,2ZM41.19,37.06h-4.66c-1.1,0-2-.9-2-2v-2.78c0-1.1.9-2,2-2h4.66c1.1,0,2,.9,2,2v2.78c0,1.1-.9,2-2,2ZM29.97,37.06h-4.66c-1.1,0-2-.9-2-2v-2.78c0-1.1.9-2,2-2h4.66c1.1,0,2,.9,2,2v2.78c0,1.1-.9,2-2,2ZM75.42,29.4h-4.66c-1.1,0-2-.9-2-2v-2.78c0-1.1.9-2,2-2h4.66c1.1,0,2,.9,2,2v2.78c0,1.1-.9,2-2,2ZM64.35,29.4h-4.66c-1.1,0-2-.9-2-2v-2.78c0-1.1.9-2,2-2h4.66c1.1,0,2,.9,2,2v2.78c0,1.1-.9,2-2,2ZM52.69,29.4h-4.66c-1.1,0-2-.9-2-2v-2.78c0-1.1.9-2,2-2h4.66c1.1,0,2,.9,2,2v2.78c0,1.1-.9,2-2,2ZM41.19,29.4h-4.66c-1.1,0-2-.9-2-2v-2.78c0-1.1.9-2,2-2h4.66c1.1,0,2,.9,2,2v2.78c0,1.1-.9,2-2,2ZM29.97,29.4h-4.66c-1.1,0-2-.9-2-2v-2.78c0-1.1.9-2,2-2h4.66c1.1,0,2,.9,2,2v2.78c0,1.1-.9,2-2,2ZM18.32,29.4h-4.66c-1.1,0-2-.9-2-2v-2.78c0-1.1.9-2,2-2h4.66c1.1,0,2,.9,2,2v2.78c0,1.1-.9,2-2,2ZM6.66,29.4H2c-1.1,0-2-.9-2-2v-2.78c0-1.1.9-2,2-2h4.66c1.1,0,2,.9,2,2v2.78c0,1.1-.89,2-2,2ZM64.35,22.1h-4.66c-1.1,0-2-.9-2-2v-3.13c0-1.1.9-2,2-2h4.66c1.1,0,2,.9,2,2v3.13c0,1.1-.9,2-2,2ZM52.69,22.1h-4.66c-1.1,0-2-.9-2-2v-3.13c0-1.1.9-2,2-2h4.66c1.1,0,2,.9,2,2v3.13c0,1.1-.9,2-2,2ZM41.19,22.1h-4.66c-1.1,0-2-.9-2-2v-3.13c0-1.1.9-2,2-2h4.66c1.1,0,2,.9,2,2v3.13c0,1.1-.9,2-2,2ZM29.97,22.1h-4.66c-1.1,0-2-.9-2-2v-3.13c0-1.1.9-2,2-2h4.66c1.1,0,2,.9,2,2v3.13c0,1.1-.9,2-2,2ZM18.32,22.1h-4.66c-1.1,0-2-.9-2-2v-3.13c0-1.1.9-2,2-2h4.66c1.1,0,2,.9,2,2v3.13c0,1.1-.9,2-2,2ZM52.69,14.44h-4.66c-1.1,0-2-.9-2-2v-2.78c0-1.1.9-2,2-2h4.66c1.1,0,2,.9,2,2v2.78c0,1.1-.9,2-2,2ZM41.19,14.44h-4.66c-1.1,0-2-.9-2-2v-2.78c0-1.1.9-2,2-2h4.66c1.1,0,2,.9,2,2v2.78c0,1.1-.9,2-2,2ZM29.97,14.44h-4.66c-1.1,0-2-.9-2-2v-2.78c0-1.1.9-2,2-2h4.66c1.1,0,2,.9,2,2v2.78c0,1.1-.9,2-2,2ZM41.19,7.13h-4.66c-1.1,0-2-.9-2-2v-3.13c0-1.1.9-2,2-2h4.66c1.1,0,2,.9,2,2v3.13c0,1.1-.9,2-2,2Z"/>
  </g>
</svg>
